<svg width="32" height="32" viewBox="0 0 32 32" fill="none" xmlns="http://www.w3.org/2000/svg">
<path fill-rule="evenodd" clip-rule="evenodd" d="M13.2587 1.66675H20.712C22.2307 1.66675 23.432 1.66675 24.4 1.74941C25.3907 1.83341 26.2267 2.00941 26.9867 2.41475C28.0914 3.00523 28.9962 3.91003 29.5867 5.01475C29.9907 5.77341 30.1667 6.60941 30.2507 7.60008C30.3333 8.56675 30.3333 9.76941 30.3333 11.2881V11.3334C30.3333 11.5986 30.228 11.853 30.0404 12.0405C29.8529 12.2281 29.5985 12.3334 29.3333 12.3334C29.0681 12.3334 28.8138 12.2281 28.6262 12.0405C28.4387 11.853 28.3333 11.5986 28.3333 11.3334C28.3333 9.76008 28.3333 8.64275 28.2587 7.76941C28.1853 6.90808 28.0453 6.37741 27.8213 5.95741C27.4173 5.2017 26.7984 4.58273 26.0427 4.17875C25.6227 3.95475 25.092 3.81475 24.2307 3.74141C23.3573 3.66808 22.24 3.66675 20.6667 3.66675H13.3333C10.7907 3.66675 8.98533 3.66941 7.61333 3.85341C6.27333 4.03341 5.5 4.37208 4.936 4.93608C4.372 5.50008 4.03333 6.27341 3.85333 7.61475C3.66933 8.98541 3.66667 10.7907 3.66667 13.3334V14.6667C3.66667 15.2787 3.66667 15.8321 3.672 16.3334H14.6667C14.9319 16.3334 15.1862 16.4388 15.3738 16.6263C15.5613 16.8138 15.6667 17.0682 15.6667 17.3334C15.6667 17.5986 15.5613 17.853 15.3738 18.0405C15.1862 18.2281 14.9319 18.3334 14.6667 18.3334H3.74267C3.75867 18.5414 3.78 18.7374 3.804 18.9227C3.936 19.9014 4.17733 20.4187 4.54533 20.7881C4.91467 21.1574 5.432 21.3974 6.412 21.5294C7.41733 21.6641 8.75333 21.6667 10.6667 21.6667H14.6667C14.9319 21.6667 15.1862 21.7721 15.3738 21.9596C15.5613 22.1472 15.6667 22.4015 15.6667 22.6667V29.3334C15.6667 29.5986 15.5613 29.853 15.3738 30.0405C15.1862 30.2281 14.9319 30.3334 14.6667 30.3334H10.6667C10.4014 30.3334 10.1471 30.2281 9.95956 30.0405C9.77202 29.853 9.66667 29.5986 9.66667 29.3334C9.66667 29.0682 9.77202 28.8138 9.95956 28.6263C10.1471 28.4388 10.4014 28.3334 10.6667 28.3334H13.6667V23.6667H10.5933C8.77067 23.6667 7.3 23.6667 6.144 23.5121C4.944 23.3494 3.93333 23.0054 3.13067 22.2027C2.328 21.4001 1.984 20.3894 1.82267 19.1894C1.75733 18.7094 1.72 18.1734 1.69733 17.5814C1.6609 17.4388 1.65635 17.29 1.684 17.1454C1.66667 16.4241 1.66667 15.6227 1.66667 14.7401V13.2587C1.66667 10.8081 1.66667 8.86675 1.87067 7.34808C2.08133 5.78541 2.524 4.52008 3.52133 3.52141C4.52 2.52408 5.78533 2.08141 7.348 1.87075C8.868 1.66675 10.808 1.66675 13.2587 1.66675ZM23.9307 13.6667H24.0693C25.268 13.6667 26.2667 13.6667 27.0587 13.7734C27.896 13.8854 28.652 14.1334 29.2587 14.7414C29.8667 15.3481 30.1147 16.1041 30.2267 16.9414C30.3333 17.7334 30.3333 18.7334 30.3333 19.9307V24.0694C30.3333 25.2681 30.3333 26.2667 30.2267 27.0587C30.1147 27.8961 29.8667 28.6521 29.2587 29.2587C28.652 29.8667 27.896 30.1147 27.0587 30.2267C26.2667 30.3334 25.268 30.3334 24.0693 30.3334H23.9307C22.732 30.3334 21.7333 30.3334 20.9413 30.2267C20.104 30.1147 19.348 29.8667 18.7413 29.2587C18.1333 28.6521 17.8853 27.8961 17.7733 27.0587C17.6667 26.2667 17.6667 25.2681 17.6667 24.0694V19.9307C17.6667 18.7321 17.6667 17.7334 17.7733 16.9414C17.8853 16.1041 18.1333 15.3481 18.7413 14.7414C19.348 14.1334 20.104 13.8854 20.9413 13.7734C21.7333 13.6667 22.732 13.6667 23.9307 13.6667ZM21.2067 15.7547C20.592 15.8387 20.328 15.9814 20.1547 16.1547C19.9813 16.3281 19.8387 16.5921 19.7547 17.2081C19.6693 17.8507 19.6667 18.7147 19.6667 20.0001V24.0001C19.6667 25.2854 19.6693 26.1494 19.7547 26.7934C19.8387 27.4081 19.9813 27.6721 20.1547 27.8454C20.328 28.0187 20.592 28.1614 21.208 28.2454C21.8507 28.3307 22.7147 28.3334 24 28.3334C25.2853 28.3334 26.1493 28.3307 26.7933 28.2441C27.408 28.1614 27.672 28.0187 27.8453 27.8441C28.0187 27.6707 28.1613 27.4081 28.2453 26.7934C28.3307 26.1494 28.3333 25.2854 28.3333 24.0001V20.0001C28.3333 18.7147 28.3307 17.8507 28.244 17.2067C28.1613 16.5921 28.0187 16.3281 27.844 16.1547C27.6707 15.9814 27.408 15.8387 26.7933 15.7547C26.1493 15.6694 25.2853 15.6667 24 15.6667C22.7147 15.6667 21.8507 15.6694 21.2067 15.7547ZM21.6667 26.6667C21.6667 26.4015 21.772 26.1472 21.9596 25.9596C22.1471 25.7721 22.4014 25.6667 22.6667 25.6667H25.3333C25.5985 25.6667 25.8529 25.7721 26.0404 25.9596C26.228 26.1472 26.3333 26.4015 26.3333 26.6667C26.3333 26.932 26.228 27.1863 26.0404 27.3739C25.8529 27.5614 25.5985 27.6667 25.3333 27.6667H22.6667C22.4014 27.6667 22.1471 27.5614 21.9596 27.3739C21.772 27.1863 21.6667 26.932 21.6667 26.6667Z" fill="#566AED"/>
</svg>
