<svg width="32" height="32" viewBox="0 0 32 32" fill="none" xmlns="http://www.w3.org/2000/svg">
<path fill-rule="evenodd" clip-rule="evenodd" d="M25.3333 3.66675C24.9394 3.66675 24.5492 3.74435 24.1853 3.89511C23.8213 4.04587 23.4906 4.26685 23.212 4.54543C22.9334 4.824 22.7124 5.15472 22.5617 5.5187C22.4109 5.88267 22.3333 6.27278 22.3333 6.66675C22.3333 7.06071 22.4109 7.45082 22.5617 7.8148C22.7124 8.17878 22.9334 8.50949 23.212 8.78807C23.4906 9.06664 23.8213 9.28762 24.1853 9.43839C24.5492 9.58915 24.9394 9.66675 25.3333 9.66675C26.129 9.66675 26.892 9.35068 27.4546 8.78807C28.0173 8.22546 28.3333 7.4624 28.3333 6.66675C28.3333 5.8711 28.0173 5.10804 27.4546 4.54543C26.892 3.98282 26.129 3.66675 25.3333 3.66675ZM20.3333 6.66675C20.3333 5.34067 20.8601 4.0689 21.7978 3.13121C22.7355 2.19353 24.0072 1.66675 25.3333 1.66675C26.6594 1.66675 27.9312 2.19353 28.8689 3.13121C29.8065 4.0689 30.3333 5.34067 30.3333 6.66675C30.3333 7.99283 29.8065 9.2646 28.8689 10.2023C27.9312 11.14 26.6594 11.6667 25.3333 11.6667C24.0072 11.6667 22.7355 11.14 21.7978 10.2023C20.8601 9.2646 20.3333 7.99283 20.3333 6.66675ZM13.2587 4.33341H17.3333C17.5985 4.33341 17.8529 4.43877 18.0404 4.62631C18.228 4.81384 18.3333 5.0682 18.3333 5.33341C18.3333 5.59863 18.228 5.85299 18.0404 6.04052C17.8529 6.22806 17.5985 6.33342 17.3333 6.33342H13.3333C10.7907 6.33342 8.98532 6.33608 7.61332 6.52008C6.27332 6.70008 5.49999 7.03875 4.93599 7.60275C4.37199 8.16675 4.03332 8.94008 3.85332 10.2814C3.66932 11.6521 3.66666 13.4574 3.66666 16.0001C3.66666 18.5427 3.66932 20.3481 3.85332 21.7201C4.03332 23.0601 4.37199 23.8334 4.93599 24.3974C5.49999 24.9614 6.27332 25.3001 7.61466 25.4801C8.98532 25.6641 10.7907 25.6667 13.3333 25.6667H18.6667C21.2093 25.6667 23.016 25.6641 24.3867 25.4801C25.7267 25.3001 26.5 24.9614 27.064 24.3974C27.628 23.8334 27.9667 23.0601 28.1467 21.7187C28.3307 20.3481 28.3333 18.5427 28.3333 16.0001C28.3333 15.5027 28.3373 15.1401 28.34 14.8267C28.3453 14.3214 28.3493 13.9494 28.3333 13.3601C28.3263 13.0949 28.4248 12.8377 28.6074 12.6452C28.7899 12.4526 29.0414 12.3405 29.3067 12.3334C29.5719 12.3263 29.829 12.4249 30.0216 12.6075C30.2141 12.79 30.3263 13.0415 30.3333 13.3067C30.3493 13.9294 30.3453 14.3534 30.34 14.8894C30.3373 15.2014 30.3333 15.5521 30.3333 16.0001V16.0747C30.3333 18.5254 30.3333 20.4667 30.1293 21.9854C29.9187 23.5481 29.476 24.8134 28.4787 25.8121C27.48 26.8094 26.2147 27.2521 24.652 27.4627C23.132 27.6667 21.192 27.6667 18.7413 27.6667H13.2587C10.808 27.6667 8.86666 27.6667 7.34799 27.4627C5.78532 27.2521 4.51999 26.8094 3.52132 25.8121C2.52399 24.8134 2.08132 23.5481 1.87066 21.9854C1.66666 20.4654 1.66666 18.5254 1.66666 16.0747V15.9254C1.66666 13.4747 1.66666 11.5334 1.87066 10.0147C2.08132 8.45208 2.52399 7.18675 3.52132 6.18808C4.51999 5.19075 5.78532 4.74808 7.34799 4.53742C8.86799 4.33342 10.808 4.33341 13.2587 4.33341ZM7.23199 10.0267C7.40177 9.82313 7.64546 9.69526 7.90949 9.67126C8.17352 9.64726 8.43627 9.72908 8.63999 9.89875L11.52 12.2974C12.764 13.3334 13.6267 14.0507 14.3573 14.5201C15.0627 14.9734 15.5413 15.1267 16.0013 15.1267C16.4613 15.1267 16.94 14.9747 17.6453 14.5201C18.3747 14.0507 19.2387 13.3334 20.4827 12.2974C20.583 12.2096 20.6999 12.1428 20.8265 12.1008C20.9531 12.0589 21.0867 12.0427 21.2197 12.0531C21.3526 12.0636 21.4821 12.1006 21.6005 12.1618C21.719 12.2231 21.824 12.3074 21.9093 12.4099C21.9947 12.5123 22.0587 12.6308 22.0976 12.7583C22.1365 12.8859 22.1495 13.0199 22.1358 13.1525C22.1222 13.2852 22.0821 13.4137 22.018 13.5307C21.9539 13.6476 21.8671 13.7505 21.7627 13.8334L21.7133 13.8761C20.5307 14.8601 19.5733 15.6587 18.7267 16.2027C17.8467 16.7694 16.9893 17.1267 16.0013 17.1267C15.0133 17.1267 14.156 16.7681 13.2747 16.2027C12.4293 15.6587 11.472 14.8601 10.2893 13.8761L7.35999 11.4361C7.25897 11.352 7.17552 11.2488 7.11441 11.1325C7.0533 11.0161 7.01573 10.8888 7.00384 10.7579C6.99195 10.6271 7.00598 10.4951 7.04513 10.3696C7.08428 10.2442 7.14778 10.1277 7.23199 10.0267Z" fill="#566AED"/>
</svg>
