<svg width="32" height="32" viewBox="0 0 32 32" fill="none" xmlns="http://www.w3.org/2000/svg">
<path d="M15.924 1.66675C12.8453 1.66675 10.4333 1.66675 8.55066 1.92008C6.62532 2.17875 5.10532 2.72008 3.91199 3.91208C2.71866 5.10541 2.17866 6.62541 1.91999 8.55208C1.66666 10.4334 1.66666 12.8454 1.66666 15.9241V16.0761C1.66666 19.1547 1.66666 21.5667 1.91999 23.4494C2.17866 25.3747 2.71999 26.8947 3.91199 28.0881C5.10532 29.2814 6.62532 29.8214 8.55199 30.0801C10.4333 30.3334 12.8453 30.3334 15.924 30.3334H16.076C19.1547 30.3334 21.5667 30.3334 23.4493 30.0801C25.3747 29.8214 26.8947 29.2801 28.088 28.0881C29.2813 26.8947 29.8213 25.3747 30.08 23.4481C30.3333 21.5667 30.3333 19.1547 30.3333 16.0761V14.0001C30.3333 13.7349 30.228 13.4805 30.0404 13.293C29.8529 13.1054 29.5985 13.0001 29.3333 13.0001C29.0681 13.0001 28.8138 13.1054 28.6262 13.293C28.4387 13.4805 28.3333 13.7349 28.3333 14.0001V16.0001C28.3333 19.1707 28.3307 21.4481 28.0987 23.1814C27.8693 24.8867 27.432 25.9147 26.6733 26.6747C25.9133 27.4334 24.8867 27.8694 23.1813 28.0987C21.448 28.3307 19.1707 28.3334 16 28.3334C12.8293 28.3334 10.552 28.3307 8.81866 28.0987C7.11332 27.8694 6.08532 27.4321 5.32532 26.6734C4.56666 25.9134 4.13066 24.8867 3.90132 23.1814C3.66932 21.4481 3.66666 19.1707 3.66666 16.0001C3.66666 12.8294 3.66932 10.5521 3.90132 8.81875C4.13066 7.11341 4.56799 6.08541 5.32666 5.32541C6.08666 4.56675 7.11332 4.13075 8.81866 3.90141C10.552 3.66941 12.8293 3.66675 16 3.66675H18C18.2652 3.66675 18.5196 3.56139 18.7071 3.37385C18.8946 3.18632 19 2.93196 19 2.66675C19 2.40153 18.8946 2.14718 18.7071 1.95964C18.5196 1.7721 18.2652 1.66675 18 1.66675H15.924Z" fill="#566AED"/>
<path fill-rule="evenodd" clip-rule="evenodd" d="M25.3333 1.66675C24.0072 1.66675 22.7355 2.19353 21.7978 3.13121C20.8601 4.0689 20.3333 5.34067 20.3333 6.66675C20.3333 7.99283 20.8601 9.2646 21.7978 10.2023C22.7355 11.14 24.0072 11.6667 25.3333 11.6667C26.6594 11.6667 27.9312 11.14 28.8688 10.2023C29.8065 9.2646 30.3333 7.99283 30.3333 6.66675C30.3333 5.34067 29.8065 4.0689 28.8688 3.13121C27.9312 2.19353 26.6594 1.66675 25.3333 1.66675ZM22.3333 6.66675C22.3333 5.8711 22.6494 5.10804 23.212 4.54543C23.7746 3.98282 24.5377 3.66675 25.3333 3.66675C26.129 3.66675 26.892 3.98282 27.4546 4.54543C28.0172 5.10804 28.3333 5.8711 28.3333 6.66675C28.3333 7.4624 28.0172 8.22546 27.4546 8.78807C26.892 9.35068 26.129 9.66675 25.3333 9.66675C24.5377 9.66675 23.7746 9.35068 23.212 8.78807C22.6494 8.22546 22.3333 7.4624 22.3333 6.66675Z" fill="#566AED"/>
<path d="M8.33331 18.6667C8.33331 18.4015 8.43867 18.1472 8.62621 17.9596C8.81374 17.7721 9.0681 17.6667 9.33331 17.6667H21.3333C21.5985 17.6667 21.8529 17.7721 22.0404 17.9596C22.228 18.1472 22.3333 18.4015 22.3333 18.6667C22.3333 18.932 22.228 19.1863 22.0404 19.3739C21.8529 19.5614 21.5985 19.6667 21.3333 19.6667H9.33331C9.0681 19.6667 8.81374 19.5614 8.62621 19.3739C8.43867 19.1863 8.33331 18.932 8.33331 18.6667ZM9.33331 22.3334C9.0681 22.3334 8.81374 22.4388 8.62621 22.6263C8.43867 22.8138 8.33331 23.0682 8.33331 23.3334C8.33331 23.5986 8.43867 23.853 8.62621 24.0405C8.81374 24.2281 9.0681 24.3334 9.33331 24.3334H17.3333C17.5985 24.3334 17.8529 24.2281 18.0404 24.0405C18.228 23.853 18.3333 23.5986 18.3333 23.3334C18.3333 23.0682 18.228 22.8138 18.0404 22.6263C17.8529 22.4388 17.5985 22.3334 17.3333 22.3334H9.33331Z" fill="#566AED"/>
</svg>
