<svg width="32" height="32" viewBox="0 0 32 32" fill="none" xmlns="http://www.w3.org/2000/svg">
<path fill-rule="evenodd" clip-rule="evenodd" d="M21.8587 2.6946L21.9467 2.7186C23.4133 3.11193 24.5747 3.4226 25.488 3.75327C26.4227 4.0906 27.1853 4.47593 27.8133 5.06393C28.7273 5.92063 29.3667 7.02914 29.6507 8.24927C29.8467 9.0866 29.8 9.93993 29.624 10.9173C29.4547 11.8746 29.144 13.0359 28.7507 14.5013L28.036 17.1666C27.644 18.6319 27.332 19.7933 27.0027 20.7066C26.664 21.6413 26.2787 22.4039 25.6907 23.0319C24.8619 23.9168 23.7967 24.5453 22.6213 24.8426C22.277 25.6321 21.7752 26.343 21.1467 26.9319C20.5187 27.5199 19.756 27.9053 18.8213 28.2439C17.908 28.5746 16.7467 28.8853 15.2813 29.2786L15.192 29.3026C13.7253 29.6946 12.5653 30.0053 11.608 30.1773C10.6307 30.3519 9.77733 30.3986 8.93867 30.2039C7.71871 29.919 6.61066 29.2787 5.75467 28.3639C5.168 27.7373 4.78133 26.9746 4.44267 26.0399C4.11333 25.1266 3.80267 23.9653 3.40933 22.4986L2.69467 19.8346C2.30267 18.3679 1.99067 17.2079 1.82 16.2506C1.64533 15.2733 1.59867 14.4199 1.79333 13.5813C2.07826 12.3613 2.71859 11.2533 3.63333 10.3973C4.26 9.8106 5.02267 9.42393 5.95733 9.08527C6.87067 8.75593 8.032 8.44527 9.49733 8.05193L9.54267 8.0386L10.544 7.77193C11.0667 5.9066 11.5253 4.58793 12.4213 3.63193C13.2775 2.71768 14.3855 2.07782 15.6053 1.79327C16.444 1.5986 17.296 1.64527 18.2747 1.81993C19.2307 1.9906 20.392 2.3026 21.8587 2.6946ZM9.94 10.0039C8.48267 10.3946 7.43867 10.6773 6.636 10.9666C5.82267 11.2599 5.34667 11.5319 5 11.8573C4.3742 12.443 3.93618 13.2012 3.74133 14.0359C3.63467 14.4999 3.636 15.0493 3.78933 15.8986C3.94267 16.7613 4.232 17.8413 4.63867 19.3613L5.32933 21.9373C5.736 23.4573 6.02667 24.5373 6.324 25.3599C6.61733 26.1733 6.88933 26.6506 7.21467 26.9973C7.80042 27.6231 8.55861 28.0611 9.39333 28.2559C9.856 28.3626 10.4067 28.3599 11.256 28.2079C12.1187 28.0546 13.1987 27.7653 14.7187 27.3586C16.2387 26.9506 17.3187 26.6613 18.1427 26.3626C18.9547 26.0693 19.432 25.7973 19.7787 25.4733C19.9627 25.2999 20.1293 25.1133 20.28 24.9146C20.0326 24.8793 19.7863 24.837 19.5413 24.7879C18.6453 24.6093 17.568 24.3213 16.2413 23.9653L16.164 23.9453C14.6987 23.5519 13.5373 23.2413 12.624 22.9106C11.6893 22.5733 10.9267 22.1879 10.2987 21.5999C9.38418 20.7434 8.74431 19.6349 8.46 18.4146C8.26533 17.5773 8.312 16.7239 8.48667 15.7453C8.65733 14.7893 8.96933 13.6279 9.36133 12.1626L9.94 10.0039ZM17.9227 3.78927C17.072 3.63593 16.5227 3.63327 16.06 3.74127C15.2253 3.93611 14.4671 4.37413 13.8813 4.99993C13.3 5.61993 12.9413 6.57993 12.32 8.85727C12.2187 9.22793 12.112 9.6266 11.996 10.0599L11.3053 12.6359C10.8987 14.1559 10.6093 15.2359 10.456 16.0986C10.3027 16.9479 10.3 17.4986 10.408 17.9613C10.6028 18.796 11.0409 19.5542 11.6667 20.1399C12.0133 20.4653 12.4907 20.7359 13.3027 21.0306C14.1267 21.3279 15.2067 21.6173 16.7267 22.0253C18.0933 22.3919 19.1067 22.6626 19.9307 22.8253C20.7507 22.9893 21.308 23.0293 21.764 22.9733C21.864 22.9599 21.9587 22.9439 22.052 22.9226C22.8867 22.7278 23.6449 22.2897 24.2307 21.6639C24.556 21.3173 24.828 20.8399 25.1213 20.0279C25.4187 19.2039 25.708 18.1239 26.116 16.6039L26.8067 14.0279C27.2133 12.5079 27.5027 11.4279 27.656 10.5653C27.808 9.71593 27.812 9.16527 27.704 8.7026C27.5092 7.86787 27.0711 7.10969 26.4453 6.52393C26.0987 6.1986 25.6213 5.92793 24.8093 5.63327C23.984 5.33593 22.9053 5.0466 21.3853 4.6386C19.8653 4.23193 18.7853 3.9426 17.9227 3.78927ZM14.736 13.0746C14.77 12.9477 14.8287 12.8288 14.9087 12.7246C14.9887 12.6204 15.0885 12.533 15.2023 12.4674C15.3161 12.4018 15.4417 12.3592 15.5719 12.3422C15.7021 12.3251 15.8345 12.3338 15.9613 12.3679L22.4013 14.0933C22.6504 14.1682 22.8605 14.3371 22.987 14.5644C23.1136 14.7916 23.1466 15.0592 23.0791 15.3104C23.0117 15.5615 22.849 15.7765 22.6256 15.9098C22.4022 16.043 22.1357 16.0839 21.8827 16.0239L15.4427 14.2986C15.1867 14.2299 14.9686 14.0623 14.8361 13.8328C14.7036 13.6033 14.6676 13.3306 14.736 13.0746ZM13.7 16.9386C13.734 16.8116 13.7928 16.6925 13.8729 16.5882C13.953 16.484 14.0528 16.3965 14.1668 16.3308C14.2807 16.2652 14.4065 16.2227 14.5369 16.2057C14.6673 16.1887 14.7997 16.1976 14.9267 16.2319L18.7893 17.2666C19.0455 17.3352 19.264 17.5028 19.3966 17.7324C19.5293 17.9621 19.5653 18.2351 19.4967 18.4913C19.4281 18.7475 19.2605 18.9659 19.0308 19.0986C18.8012 19.2312 18.5282 19.2672 18.272 19.1986L14.408 18.1626C14.1521 18.0939 13.9339 17.9263 13.8014 17.6968C13.6689 17.4673 13.6329 17.1946 13.7013 16.9386H13.7Z" fill="#566AED"/>
</svg>
