<svg width="54" height="54" viewBox="0 0 54 54" fill="none" xmlns="http://www.w3.org/2000/svg">
<path fill-rule="evenodd" clip-rule="evenodd" d="M24.7815 10.8C25.1685 10.2938 25.8705 9.5625 27 9.5625C28.1295 9.5625 28.8315 10.2938 29.2185 10.8C29.5897 11.2815 29.961 11.9498 30.3435 12.636L30.6157 13.1265L30.744 13.3515L30.9667 13.4032L31.5022 13.5248C32.238 13.6913 32.9715 13.8555 33.534 14.0783C34.155 14.3235 34.9965 14.7983 35.3227 15.8445C35.6422 16.8683 35.2395 17.7368 34.8885 18.297C34.5622 18.8145 34.0672 19.3905 33.561 19.9823L33.201 20.4053L33.0165 20.6235C33.021 20.7045 33.0322 20.799 33.0435 20.9273L33.0975 21.4898C33.174 22.2795 33.2482 23.0445 33.2212 23.6565C33.1942 24.3 33.0412 25.272 32.1682 25.9313C31.2682 26.6153 30.2782 26.4668 29.6482 26.2845C29.0677 26.1203 28.3815 25.803 27.6907 25.4858L27.1912 25.254L27 25.1663L26.8087 25.2563L26.307 25.4858C25.6185 25.803 24.9322 26.1203 24.3517 26.2845C23.7217 26.4645 22.7317 26.6153 21.8317 25.9313C20.961 25.272 20.8057 24.3 20.7787 23.6588C20.7517 23.0445 20.8237 22.2795 20.9025 21.4875L20.9565 20.925L20.9857 20.6235C20.9239 20.5504 20.8617 20.4776 20.799 20.4053L20.439 19.9823C19.9327 19.3905 19.4377 18.8123 19.1115 18.2948C18.7605 17.7367 18.3577 16.8683 18.6772 15.8423C19.0012 14.8005 19.845 14.3235 20.466 14.0783C21.0285 13.8555 21.762 13.6913 22.4977 13.5248L23.0332 13.4032L23.2582 13.3515L23.3842 13.1265L23.6565 12.636C24.039 11.9498 24.4102 11.2815 24.7815 10.8ZM27 13.5765C26.8695 13.8038 26.7232 14.0648 26.5522 14.373L26.3317 14.769L26.28 14.859C26.1045 15.183 25.812 15.7185 25.3237 16.0898C24.8265 16.4678 24.2257 16.5983 23.877 16.6748L23.778 16.695L23.3505 16.7918C22.9545 16.8818 22.6327 16.9538 22.3605 17.0235C22.5382 17.2418 22.77 17.5163 23.0715 17.8695L23.364 18.2115L23.4315 18.288C23.6745 18.5693 24.066 19.0193 24.2482 19.6043C24.4282 20.1803 24.3652 20.7743 24.327 21.1478L24.3157 21.2535L24.2707 21.7103C24.2361 22.055 24.2046 22.4 24.1762 22.7453C24.4125 22.6418 24.678 22.5203 24.9952 22.374L25.398 22.1895L25.488 22.1445C25.812 21.9938 26.3722 21.7283 27 21.7283C27.6277 21.7283 28.188 21.9938 28.512 22.1468L28.602 22.1895L29.0047 22.374C29.3197 22.5203 29.5897 22.644 29.8237 22.7453C29.7954 22.4 29.7639 22.055 29.7292 21.7103L29.6842 21.2535L29.673 21.1478C29.6347 20.772 29.5717 20.1803 29.7517 19.6043C29.9317 19.0193 30.3255 18.5693 30.5685 18.288L30.636 18.2115L30.9285 17.8695C31.23 17.5163 31.4617 17.2418 31.6395 17.0235C31.3672 16.956 31.0455 16.8818 30.6495 16.7918L30.222 16.695L30.123 16.6725C29.7742 16.5983 29.1735 16.4678 28.6762 16.0875C28.188 15.7185 27.8955 15.183 27.72 14.8613L27.6682 14.769L27.4477 14.373C27.2767 14.0648 27.1327 13.8038 27 13.5765Z" fill="#566AED"/>
<path fill-rule="evenodd" clip-rule="evenodd" d="M16.8705 3.6158C20.2188 3.06693 23.607 2.79825 27 2.81255C31.113 2.81255 34.5128 3.1748 37.1295 3.6158L37.4332 3.66755C39.7057 4.0478 41.5957 4.36505 43.0718 6.18305C44.019 7.3508 44.325 8.61305 44.3948 10.0193L45.5017 10.3883C46.5435 10.7348 47.4592 11.0408 48.1815 11.3783C48.9645 11.7428 49.6823 12.2108 50.2313 12.9736C50.7803 13.7341 50.9985 14.5643 51.0975 15.4216C51.1875 16.2158 51.1875 17.1766 51.1875 18.2791V18.6031C51.1875 19.5076 51.1875 20.3063 51.12 20.9746C51.048 21.6968 50.8883 22.4011 50.49 23.0806C50.0872 23.7623 49.5495 24.2438 48.9533 24.6578C48.402 25.0403 47.7045 25.4296 46.9125 25.8683L40.9725 29.1691C39.7575 31.5563 38.0925 33.6848 35.7975 35.2216C33.8288 36.5423 31.473 37.3793 28.6875 37.6178V42.1876H31.905C32.8153 42.1876 33.6975 42.503 34.4014 43.0802C35.1054 43.6574 35.5876 44.4606 35.766 45.3533L36.2588 47.8126H40.5C40.9476 47.8126 41.3768 47.9903 41.6932 48.3068C42.0097 48.6233 42.1875 49.0525 42.1875 49.5001C42.1875 49.9476 42.0097 50.3768 41.6932 50.6933C41.3768 51.0098 40.9476 51.1876 40.5 51.1876H13.5C13.0524 51.1876 12.6232 51.0098 12.3068 50.6933C11.9903 50.3768 11.8125 49.9476 11.8125 49.5001C11.8125 49.0525 11.9903 48.6233 12.3068 48.3068C12.6232 47.9903 13.0524 47.8126 13.5 47.8126H17.7413L18.234 45.3533C18.4124 44.4606 18.8946 43.6574 19.5986 43.0802C20.3025 42.503 21.1847 42.1876 22.095 42.1876H25.3125V37.6178C22.527 37.3793 20.1712 36.5423 18.2025 35.2238C15.9097 33.6848 14.2425 31.5563 13.0275 29.1691L7.0875 25.8683C6.38854 25.4972 5.70752 25.0933 5.04675 24.6578C4.42446 24.2535 3.90023 23.7154 3.51225 23.0828C3.1468 22.436 2.93077 21.7157 2.88 20.9746C2.8125 20.3063 2.8125 19.5076 2.8125 18.6031V18.2768C2.8125 17.1788 2.8125 16.2158 2.9025 15.4216C3.0015 14.5643 3.2175 13.7341 3.76875 12.9736C4.31775 12.2108 5.0355 11.7428 5.81625 11.3761C6.543 11.0386 7.4565 10.7348 8.49825 10.3883L9.60525 10.0193C9.675 8.6108 9.981 7.3508 10.9282 6.18305C12.4065 4.3628 14.2942 4.04555 16.569 3.66755L16.8705 3.6158ZM21.1838 47.8126H32.8162L32.4563 46.0148C32.4308 45.8873 32.3619 45.7726 32.2614 45.6902C32.1609 45.6077 32.035 45.5626 31.905 45.5626H22.095C21.965 45.5626 21.8391 45.6077 21.7386 45.6902C21.6381 45.7726 21.5692 45.8873 21.5437 46.0148L21.1838 47.8126ZM9.6795 13.5518L9.648 13.5631C8.5005 13.9456 7.7715 14.1931 7.2405 14.4383C6.75225 14.6633 6.59475 14.8231 6.507 14.9468C6.417 15.0683 6.318 15.2686 6.25725 15.8041C6.18975 16.3846 6.1875 17.1541 6.1875 18.3646V18.5288C6.1875 19.5301 6.1875 20.1578 6.237 20.6393C6.282 21.0803 6.354 21.2581 6.4215 21.3706C6.48675 21.4831 6.606 21.6316 6.9705 21.8858C7.3665 22.1603 7.9155 22.4663 8.793 22.9546L11.1892 24.2866C10.2263 20.7541 9.83925 16.9741 9.68175 13.5541L9.6795 13.5518ZM42.8108 24.2843C43.7738 20.7518 44.1608 16.9718 44.3205 13.5518L44.352 13.5631C45.4995 13.9456 46.2285 14.1931 46.7595 14.4383C47.2477 14.6633 47.4053 14.8231 47.493 14.9468C47.583 15.0683 47.682 15.2686 47.7427 15.8041C47.8102 16.3846 47.8125 17.1541 47.8125 18.3646V18.5288C47.8125 19.5301 47.8125 20.1578 47.763 20.6393C47.718 21.0803 47.646 21.2581 47.5785 21.3706C47.5132 21.4831 47.394 21.6316 47.0295 21.8858C46.6313 22.1603 46.0845 22.4663 45.207 22.9546L42.8108 24.2843ZM27 6.18755C23.085 6.18755 19.8743 6.5318 17.433 6.94355C14.7172 7.40255 14.148 7.57355 13.5495 8.31155C12.96 9.03605 12.9038 9.72455 13.023 12.7733C13.2255 17.8538 13.896 23.3393 15.9705 27.5108C16.9965 29.5673 18.3375 31.2503 20.0835 32.4203C21.816 33.5836 24.0548 34.3126 27 34.3126C29.9475 34.3126 32.184 33.5836 33.9187 32.4203C35.6647 31.2503 37.0035 29.5673 38.0272 27.5086C40.104 23.3393 40.7745 17.8561 40.9748 12.7711C41.0985 9.72456 41.0423 9.03605 40.4528 8.31155C39.8543 7.57355 39.2828 7.40255 36.567 6.94355C33.4045 6.42615 30.2045 6.17327 27 6.18755Z" fill="#566AED"/>
</svg>
