<svg width="54" height="54" viewBox="0 0 54 54" fill="none" xmlns="http://www.w3.org/2000/svg">
<path fill-rule="evenodd" clip-rule="evenodd" d="M27 2.8125C22.3753 2.8125 17.94 4.64966 14.6698 7.91983C11.3997 11.19 9.56249 15.6253 9.56249 20.25V21.834C9.56236 23.402 9.09811 24.9349 8.22824 26.2395L5.64749 30.1163C2.64599 34.6163 4.93649 40.7318 10.1542 42.1538C11.853 42.6173 13.5675 43.0087 15.2932 43.3305L15.2977 43.3418C17.0257 47.9588 21.6495 51.1875 27 51.1875C32.3505 51.1875 36.9742 47.9588 38.7045 43.3418L38.709 43.3305C40.4374 43.0089 42.1519 42.6164 43.848 42.1538C49.0657 40.7318 51.3562 34.6163 48.3547 30.1163L45.7717 26.2395C44.9019 24.9349 44.4376 23.402 44.4375 21.834V20.25C44.4375 15.6253 42.6003 11.19 39.3302 7.91983C36.06 4.64966 31.6247 2.8125 27 2.8125ZM34.596 43.9583C29.5492 44.5613 24.4485 44.5613 19.4017 43.9583C21.0015 46.2555 23.7847 47.8125 27 47.8125C30.2152 47.8125 32.9962 46.2555 34.596 43.9583ZM12.9375 20.25C12.9375 16.5204 14.4191 12.9435 17.0563 10.3063C19.6935 7.66908 23.2704 6.1875 27 6.1875C30.7296 6.1875 34.3065 7.66908 36.9437 10.3063C39.5809 12.9435 41.0625 16.5204 41.0625 20.25V21.834C41.0625 24.0683 41.724 26.253 42.9637 28.1115L45.5467 31.9883C45.947 32.5877 46.199 33.2737 46.2818 33.9897C46.3647 34.7056 46.2761 35.4311 46.0233 36.1061C45.7705 36.781 45.3609 37.3862 44.8281 37.8717C44.2953 38.3571 43.6548 38.7089 42.9592 38.898C32.5098 41.7478 21.4879 41.7478 11.0385 38.898C10.3436 38.7084 9.70373 38.3564 9.17153 37.871C8.63932 37.3857 8.23003 36.7808 7.97737 36.1063C7.7247 35.4318 7.63588 34.7069 7.71822 33.9913C7.80056 33.2758 8.05172 32.59 8.45099 31.9905L11.0385 28.1115C12.2772 26.2523 12.938 24.0681 12.9375 21.834V20.25Z" fill="#566AED"/>
</svg>
