<svg width="32" height="32" viewBox="0 0 32 32" fill="none" xmlns="http://www.w3.org/2000/svg">
<path fill-rule="evenodd" clip-rule="evenodd" d="M13.2587 4.33325H18.7413C21.192 4.33325 23.1333 4.33325 24.652 4.53725C26.2147 4.74792 27.48 5.19059 28.4787 6.18792C29.476 7.18659 29.9187 8.45192 30.1293 10.0146C30.2493 10.9119 30.2987 11.9559 30.3187 13.1653C30.3361 13.2666 30.3379 13.37 30.324 13.4719C30.3333 14.2266 30.3333 15.0426 30.3333 15.9253V16.0746C30.3333 18.5253 30.3333 20.4666 30.1293 21.9853C29.9187 23.5479 29.476 24.8133 28.4787 25.8119C27.48 26.8093 26.2147 27.2519 24.652 27.4626C23.132 27.6666 21.192 27.6666 18.7413 27.6666H13.2587C10.808 27.6666 8.86667 27.6666 7.348 27.4626C5.78533 27.2519 4.52 26.8093 3.52133 25.8119C2.524 24.8133 2.08133 23.5479 1.87067 21.9853C1.66667 20.4653 1.66667 18.5253 1.66667 16.0746V15.9253C1.66667 15.0426 1.66667 14.2266 1.676 13.4719C1.6617 13.3701 1.66305 13.2667 1.68 13.1653C1.70133 11.9559 1.75067 10.9119 1.87067 10.0146C2.08133 8.45192 2.524 7.18659 3.52133 6.18792C4.52 5.19059 5.78533 4.74792 7.348 4.53725C8.868 4.33325 10.808 4.33325 13.2587 4.33325ZM3.66933 14.3333C3.66667 14.8506 3.66667 15.4053 3.66667 15.9999C3.66667 18.5426 3.66933 20.3479 3.85333 21.7199C4.03333 23.0599 4.372 23.8333 4.936 24.3973C5.5 24.9613 6.27333 25.2999 7.61467 25.4799C8.98533 25.6639 10.7907 25.6666 13.3333 25.6666H18.6667C21.2093 25.6666 23.016 25.6639 24.3867 25.4799C25.7267 25.2999 26.5 24.9613 27.064 24.3973C27.628 23.8333 27.9667 23.0599 28.1467 21.7186C28.3307 20.3479 28.3333 18.5426 28.3333 15.9999C28.3333 15.4053 28.3333 14.8506 28.3307 14.3333H3.66933ZM28.2987 12.3333H3.70133C3.728 11.5506 3.77333 10.8746 3.85333 10.2799C4.03333 8.93992 4.372 8.16659 4.936 7.60259C5.5 7.03859 6.27333 6.69992 7.61467 6.51992C8.98533 6.33592 10.7907 6.33325 13.3333 6.33325H18.6667C21.2093 6.33325 23.016 6.33592 24.3867 6.51992C25.7267 6.69992 26.5 7.03859 27.064 7.60259C27.628 8.16659 27.9667 8.93992 28.1467 10.2813C28.2267 10.8746 28.272 11.5506 28.2987 12.3333ZM21.2733 16.3333H21.3933C21.9707 16.3333 22.5 16.3333 22.9293 16.3906C23.404 16.4546 23.904 16.6039 24.316 17.0173C24.7293 17.4293 24.8787 17.9293 24.9427 18.4039C25 18.8346 25 19.3639 25 19.9399V20.0599C25 20.6373 25 21.1666 24.9427 21.5959C24.8787 22.0706 24.7293 22.5706 24.316 22.9826C23.904 23.3959 23.404 23.5453 22.9293 23.6093C22.4987 23.6666 21.9693 23.6666 21.3933 23.6666H21.2733C20.696 23.6666 20.1667 23.6666 19.7373 23.6093C19.2627 23.5453 18.7627 23.3959 18.3507 22.9826C17.9373 22.5706 17.788 22.0706 17.724 21.5959C17.6667 21.1653 17.6667 20.6359 17.6667 20.0599V19.9399C17.6667 19.3626 17.6667 18.8333 17.724 18.4039C17.788 17.9293 17.9373 17.4293 18.3507 17.0173C18.7627 16.6039 19.2627 16.4546 19.7373 16.3906C20.168 16.3333 20.6973 16.3333 21.2733 16.3333ZM19.7667 18.4293L19.764 18.4306L19.7627 18.4346C19.7338 18.5105 19.715 18.5898 19.7067 18.6706C19.6693 18.9506 19.6667 19.3426 19.6667 19.9999C19.6667 20.6573 19.6693 21.0493 19.7067 21.3293C19.715 21.41 19.7338 21.4893 19.7627 21.5653L19.764 21.5693L19.768 21.5706C19.8439 21.5994 19.9232 21.6182 20.004 21.6266C20.284 21.6639 20.676 21.6666 21.3333 21.6666C21.9907 21.6666 22.3827 21.6639 22.6627 21.6266C22.7434 21.6182 22.8228 21.5994 22.8987 21.5706L22.9027 21.5693L22.904 21.5653C22.9328 21.4893 22.9516 21.41 22.96 21.3293C22.9973 21.0493 23 20.6573 23 19.9999C23 19.3426 22.9973 18.9506 22.96 18.6706C22.9516 18.5898 22.9328 18.5105 22.904 18.4346L22.9027 18.4306L22.8987 18.4293C22.8228 18.4004 22.7434 18.3816 22.6627 18.3733C22.3827 18.3359 21.9907 18.3333 21.3333 18.3333C20.676 18.3333 20.284 18.3359 20.004 18.3733C19.9232 18.3816 19.8439 18.4004 19.768 18.4293H19.7667ZM7 17.9999C7 17.7347 7.10536 17.4803 7.29289 17.2928C7.48043 17.1053 7.73478 16.9999 8 16.9999H10.6667C10.9319 16.9999 11.1862 17.1053 11.3738 17.2928C11.5613 17.4803 11.6667 17.7347 11.6667 17.9999C11.6667 18.2651 11.5613 18.5195 11.3738 18.707C11.1862 18.8946 10.9319 18.9999 10.6667 18.9999H8C7.73478 18.9999 7.48043 18.8946 7.29289 18.707C7.10536 18.5195 7 18.2651 7 17.9999ZM7 21.9999C7 21.7347 7.10536 21.4803 7.29289 21.2928C7.48043 21.1053 7.73478 20.9999 8 20.9999H13.3333C13.5985 20.9999 13.8529 21.1053 14.0404 21.2928C14.228 21.4803 14.3333 21.7347 14.3333 21.9999C14.3333 22.2651 14.228 22.5195 14.0404 22.707C13.8529 22.8946 13.5985 22.9999 13.3333 22.9999H8C7.73478 22.9999 7.48043 22.8946 7.29289 22.707C7.10536 22.5195 7 22.2651 7 21.9999Z" fill="#566AED"/>
</svg>
