<svg width="32" height="32" viewBox="0 0 32 32" fill="none" xmlns="http://www.w3.org/2000/svg">
<path fill-rule="evenodd" clip-rule="evenodd" d="M27.8987 15.6665H24.3067C22.408 15.6665 20.9987 17.0785 20.9987 18.6665C20.9987 20.2545 22.408 21.6665 24.3053 21.6665H27.9293C28.204 21.6492 28.3227 21.4638 28.332 21.3518V15.9812C28.3227 15.8692 28.204 15.6838 27.9293 15.6678H27.8973L27.8987 15.6665ZM27.8 13.6665C27.888 13.6665 27.9733 13.6665 28.0533 13.6718C29.2133 13.7425 30.2413 14.6185 30.328 15.8425C30.3333 15.9225 30.3333 16.0092 30.3333 16.0892V21.2438C30.3333 21.3238 30.3333 21.4105 30.328 21.4905C30.2413 22.7145 29.2133 23.5905 28.052 23.6625C27.9733 23.6665 27.888 23.6665 27.7987 23.6665H24.308C21.448 23.6665 19 21.4958 19 18.6665C19 15.8372 21.448 13.6665 24.3067 13.6665H27.8Z" fill="#566AED"/>
<path d="M25.3333 18.6666C25.3333 19.0202 25.1929 19.3593 24.9428 19.6094C24.6928 19.8594 24.3536 19.9999 24 19.9999C23.6464 19.9999 23.3072 19.8594 23.0572 19.6094C22.8071 19.3593 22.6667 19.0202 22.6667 18.6666C22.6667 18.313 22.8071 17.9738 23.0572 17.7238C23.3072 17.4737 23.6464 17.3333 24 17.3333C24.3536 17.3333 24.6928 17.4737 24.9428 17.7238C25.1929 17.9738 25.3333 18.313 25.3333 18.6666Z" fill="#566AED"/>
<path fill-rule="evenodd" clip-rule="evenodd" d="M27.8 13.6666C28.1825 13.6521 28.5633 13.7251 28.9133 13.8799C28.7707 11.7386 28.3773 10.0879 27.1453 8.85458C26.1467 7.85725 24.8813 7.41458 23.3187 7.20391L23.2627 7.19725C23.2487 7.18667 23.2345 7.17644 23.22 7.16658L18.2387 3.86391C17.3746 3.30002 16.3651 2.99976 15.3333 2.99976C14.3016 2.99976 13.2921 3.30002 12.428 3.86391L7.44801 7.16658C7.43307 7.17642 7.4184 7.18664 7.40401 7.19725L7.34801 7.20391C5.78534 7.41458 4.52001 7.85725 3.52134 8.85458C2.52401 9.85325 2.08134 11.1186 1.87067 12.6812C1.66667 14.2012 1.66667 16.1412 1.66667 18.5919V18.7412C1.66667 21.1919 1.66667 23.1332 1.87067 24.6519C2.08134 26.2146 2.52401 27.4799 3.52134 28.4786C4.52001 29.4759 5.78534 29.9186 7.34801 30.1292C8.86801 30.3332 10.808 30.3332 13.2587 30.3332H17.408C19.8587 30.3332 21.8 30.3332 23.3187 30.1292C24.8813 29.9186 26.1467 29.4759 27.1453 28.4786C28.3773 27.2452 28.7707 25.5946 28.9133 23.4519C28.644 23.5719 28.3533 23.6439 28.052 23.6626C27.9733 23.6666 27.888 23.6666 27.7987 23.6666H26.8907C26.7387 25.4546 26.396 26.3999 25.7307 27.0639C25.1667 27.6279 24.3933 27.9666 23.052 28.1466C21.6827 28.3306 19.876 28.3332 17.3333 28.3332H13.3333C10.7907 28.3332 8.98534 28.3306 7.61334 28.1466C6.27334 27.9666 5.50001 27.6279 4.93601 27.0639C4.372 26.4999 4.03334 25.7266 3.85334 24.3852C3.66934 23.0159 3.66667 21.2092 3.66667 18.6666C3.66667 16.1239 3.66934 14.3186 3.85334 12.9466C4.03334 11.6066 4.372 10.8332 4.93601 10.2692C5.50001 9.70525 6.27334 9.36658 7.61467 9.18658C8.98534 9.00258 10.7907 8.99991 13.3333 8.99991H17.3333C19.876 8.99991 21.6827 9.00258 23.0533 9.18658C24.3933 9.36658 25.1667 9.70525 25.7307 10.2692C26.396 10.9332 26.7387 11.8786 26.8907 13.6666H27.8ZM13.2587 6.99991H17.408C18.0973 6.99991 18.7453 6.99991 19.3547 7.00391L17.1333 5.53058C16.0667 4.82391 14.6 4.82391 13.5333 5.53058L11.3107 7.00391C11.9213 6.99991 12.5693 6.99991 13.2573 6.99991H13.2587Z" fill="#566AED"/>
<path d="M8 12.3333C7.73478 12.3333 7.48043 12.4386 7.29289 12.6261C7.10536 12.8137 7 13.068 7 13.3333C7 13.5985 7.10536 13.8528 7.29289 14.0404C7.48043 14.2279 7.73478 14.3333 8 14.3333H13.3333C13.5985 14.3333 13.8529 14.2279 14.0404 14.0404C14.228 13.8528 14.3333 13.5985 14.3333 13.3333C14.3333 13.068 14.228 12.8137 14.0404 12.6261C13.8529 12.4386 13.5985 12.3333 13.3333 12.3333H8Z" fill="#566AED"/>
<path d="M25.3333 18.6666C25.3333 19.0202 25.1929 19.3593 24.9428 19.6094C24.6928 19.8594 24.3536 19.9999 24 19.9999C23.6464 19.9999 23.3072 19.8594 23.0572 19.6094C22.8071 19.3593 22.6667 19.0202 22.6667 18.6666C22.6667 18.313 22.8071 17.9738 23.0572 17.7238C23.3072 17.4737 23.6464 17.3333 24 17.3333C24.3536 17.3333 24.6928 17.4737 24.9428 17.7238C25.1929 17.9738 25.3333 18.313 25.3333 18.6666Z" fill="#566AED"/>
</svg>
