<svg width="32" height="32" viewBox="0 0 32 32" fill="none" xmlns="http://www.w3.org/2000/svg">
<path fill-rule="evenodd" clip-rule="evenodd" d="M24.3867 6.51992C23.016 6.33592 21.2093 6.33325 18.6667 6.33325H13.3333C10.7907 6.33325 8.98532 6.33592 7.61332 6.51992C6.27332 6.69992 5.49999 7.03859 4.93599 7.60259C4.37199 8.16659 4.03332 8.93992 3.85332 10.2813C3.66932 11.6519 3.66666 13.4573 3.66666 15.9999C3.66666 18.5426 3.66932 20.3479 3.85332 21.7199C4.03332 23.0599 4.37199 23.8333 4.93599 24.3973C5.49999 24.9613 6.27332 25.2999 7.61466 25.4799C8.98532 25.6639 10.7907 25.6666 13.3333 25.6666H18.6667C21.2093 25.6666 23.016 25.6639 24.3867 25.4799C25.7267 25.2999 26.5 24.9613 27.064 24.3973C27.628 23.8333 27.9667 23.0599 28.1467 21.7186C28.3307 20.3479 28.3333 18.5426 28.3333 15.9999C28.3333 13.4573 28.3307 11.6519 28.1467 10.2799C27.9667 8.93992 27.628 8.16659 27.064 7.60259C26.5 7.03859 25.7267 6.69992 24.3853 6.51992H24.3867ZM24.652 4.53725C26.2147 4.74792 27.48 5.19059 28.4787 6.18792C29.476 7.18659 29.9187 8.45192 30.1293 10.0146C30.3333 11.5346 30.3333 13.4746 30.3333 15.9253V16.0746C30.3333 18.5253 30.3333 20.4666 30.1293 21.9853C29.9187 23.5479 29.476 24.8133 28.4787 25.8119C27.48 26.8093 26.2147 27.2519 24.652 27.4626C23.132 27.6666 21.192 27.6666 18.7413 27.6666H13.2587C10.808 27.6666 8.86666 27.6666 7.34799 27.4626C5.78532 27.2519 4.51999 26.8093 3.52132 25.8119C2.52399 24.8133 2.08132 23.5479 1.87066 21.9853C1.66666 20.4653 1.66666 18.5253 1.66666 16.0746V15.9253C1.66666 13.4746 1.66666 11.5333 1.87066 10.0146C2.08132 8.45192 2.52399 7.18659 3.52132 6.18792C4.51999 5.19059 5.78532 4.74792 7.34799 4.53725C8.86799 4.33325 10.808 4.33325 13.2587 4.33325H18.7413C21.192 4.33325 23.1333 4.33325 24.652 4.53725ZM11 22.6666C11 22.4014 11.1053 22.147 11.2929 21.9595C11.4804 21.7719 11.7348 21.6666 12 21.6666H20C20.2652 21.6666 20.5196 21.7719 20.7071 21.9595C20.8946 22.147 21 22.4014 21 22.6666C21 22.9318 20.8946 23.1862 20.7071 23.3737C20.5196 23.5612 20.2652 23.6666 20 23.6666H12C11.7348 23.6666 11.4804 23.5612 11.2929 23.3737C11.1053 23.1862 11 22.9318 11 22.6666Z" fill="#566AED"/>
</svg>
