<svg width="32" height="32" viewBox="0 0 32 32" fill="none" xmlns="http://www.w3.org/2000/svg">
<path fill-rule="evenodd" clip-rule="evenodd" d="M16.3333 3.77875C15.72 3.67475 14.8827 3.66675 13.3733 3.66675C10.8173 3.66675 9 3.66941 7.624 3.85341C6.27466 4.03341 5.5 4.37341 4.936 4.93608C4.372 5.50008 4.03333 6.27341 3.85333 7.61475C3.66933 8.98541 3.66666 10.7907 3.66666 13.3347V18.6681C3.66666 21.2094 3.66933 23.0147 3.85333 24.3854C4.03333 25.7267 4.372 26.5001 4.936 27.0654C5.5 27.6281 6.27333 27.9667 7.61466 28.1467C8.98533 28.3321 10.7907 28.3334 13.3333 28.3334H18.6667C21.2093 28.3334 23.016 28.3307 24.3867 28.1467C25.7267 27.9667 26.5 27.6281 27.064 27.0641C27.628 26.5001 27.9667 25.7267 28.1467 24.3854C28.3307 23.0161 28.3333 21.2094 28.3333 18.6667V18.0841C28.3333 16.0361 28.32 15.0654 28.1013 14.3334H23.928C22.4173 14.3334 21.184 14.3334 20.208 14.2027C19.1907 14.0654 18.308 13.7694 17.6027 13.0641C16.8973 12.3587 16.6013 11.4774 16.464 10.4574C16.3333 9.48408 16.3333 8.24941 16.3333 6.73741V3.77875ZM18.3333 4.81341V6.66675C18.3333 8.26675 18.336 9.36541 18.4467 10.1907C18.5533 10.9881 18.7453 11.3787 19.0173 11.6494C19.288 11.9214 19.6787 12.1134 20.476 12.2201C21.3013 12.3307 22.4 12.3334 24 12.3334H26.6933C26.1817 11.8462 25.6616 11.3679 25.1333 10.8987L19.8547 6.14808C19.3567 5.69289 18.8495 5.24791 18.3333 4.81341ZM13.5667 1.66675C15.4133 1.66675 16.6067 1.66675 17.704 2.08675C18.8013 2.50808 19.684 3.30275 21.0507 4.53341L21.1933 4.66141L26.4707 9.41208L26.6373 9.56141C28.216 10.9814 29.2373 11.9001 29.7853 13.1321C30.3347 14.3641 30.3347 15.7374 30.3333 17.8601V18.7414C30.3333 21.1921 30.3333 23.1334 30.1293 24.6521C29.9187 26.2147 29.476 27.4801 28.4787 28.4787C27.48 29.4761 26.2147 29.9187 24.652 30.1294C23.132 30.3334 21.192 30.3334 18.7413 30.3334H13.2587C10.808 30.3334 8.86666 30.3334 7.348 30.1294C5.78533 29.9187 4.52 29.4761 3.52133 28.4787C2.524 27.4801 2.08133 26.2147 1.87066 24.6521C1.66666 23.1321 1.66666 21.1921 1.66666 18.7414V13.2587C1.66666 10.8081 1.66666 8.86675 1.87066 7.34808C2.08133 5.78541 2.524 4.52008 3.52133 3.52141C4.52133 2.52275 5.78933 2.08141 7.35866 1.87075C8.884 1.66675 10.8347 1.66675 13.2987 1.66675H13.5667Z" fill="#566AED"/>
<path fill-rule="evenodd" clip-rule="evenodd" d="M13.9973 19.2533C14.1954 19.4293 14.3154 19.6768 14.3312 19.9413C14.3469 20.2057 14.2571 20.4657 14.0813 20.664L10.5253 24.664C10.4315 24.7695 10.3164 24.8539 10.1876 24.9118C10.0588 24.9696 9.91919 24.9995 9.778 24.9995C9.6368 24.9995 9.4972 24.9696 9.36839 24.9118C9.23958 24.8539 9.12448 24.7695 9.03066 24.664L7.252 22.664C7.1648 22.5657 7.0978 22.4513 7.05483 22.3272C7.01186 22.2031 6.99376 22.0717 7.00156 21.9406C7.00936 21.8095 7.04291 21.6812 7.10029 21.563C7.15768 21.4449 7.23777 21.3392 7.336 21.252C7.43423 21.1648 7.54867 21.0978 7.67279 21.0548C7.79691 21.0118 7.92828 20.9937 8.05939 21.0015C8.19051 21.0093 8.31881 21.0429 8.43696 21.1003C8.55511 21.1576 8.6608 21.2377 8.748 21.336L9.77733 22.496L12.5853 19.336C12.6725 19.2375 12.7783 19.1572 12.8966 19.0997C13.0148 19.0422 13.1433 19.0086 13.2746 19.0008C13.4059 18.993 13.5374 19.0112 13.6616 19.0543C13.7859 19.0974 13.9004 19.1645 13.9987 19.252L13.9973 19.2533Z" fill="#566AED"/>
</svg>
