<svg width="32" height="32" viewBox="0 0 32 32" fill="none" xmlns="http://www.w3.org/2000/svg">
<path fill-rule="evenodd" clip-rule="evenodd" d="M9.684 4.34541C9.76326 3.60967 10.1117 2.92918 10.6622 2.43473C11.2128 1.94028 11.9267 1.66677 12.6667 1.66675H19.3333C20.0733 1.66677 20.7872 1.94028 21.3378 2.43473C21.8883 2.92918 22.2367 3.60967 22.316 4.34541C23.3333 4.36541 24.2133 4.41875 24.9653 4.55608C25.976 4.74275 26.836 5.09608 27.536 5.79608C28.3387 6.59875 28.6827 7.60941 28.8453 8.80941C29 9.96408 29 11.4347 29 13.2574V21.4041C29 23.2281 29 24.6974 28.8453 25.8534C28.6827 27.0534 28.3387 28.0641 27.536 28.8667C26.7333 29.6694 25.7227 30.0134 24.5227 30.1761C23.3667 30.3307 21.896 30.3307 20.0733 30.3307H11.9267C10.104 30.3307 8.63333 30.3307 7.47733 30.1761C6.27733 30.0147 5.26667 29.6694 4.464 28.8667C3.66133 28.0641 3.31733 27.0534 3.156 25.8534C3 24.6974 3 23.2267 3 21.4041V13.2574C3 11.4347 3 9.96408 3.156 8.80941C3.316 7.60941 3.66267 6.59875 4.464 5.79608C5.164 5.09608 6.024 4.74275 7.03467 4.55608C7.78667 4.41875 8.66667 4.36541 9.684 4.34541ZM9.68667 6.34541C8.72933 6.36541 7.99067 6.41475 7.396 6.52408C6.64133 6.66275 6.20267 6.88408 5.87867 7.20941C5.50933 7.57875 5.26933 8.09741 5.13733 9.07608C5.00267 10.0827 5 11.4174 5 13.3307V21.3307C5 23.2454 5.00267 24.5801 5.13733 25.5868C5.26933 26.5654 5.51067 27.0827 5.87867 27.4534C6.248 27.8214 6.76533 28.0627 7.74533 28.1934C8.75067 28.3294 10.0867 28.3307 12 28.3307H20C21.9133 28.3307 23.248 28.3294 24.256 28.1934C25.2347 28.0627 25.752 27.8214 26.1213 27.4521C26.4907 27.0841 26.7307 26.5654 26.8627 25.5868C26.9973 24.5801 27 23.2454 27 21.3307V13.3307C27 11.4174 26.9973 10.0827 26.8627 9.07475C26.7307 8.09742 26.4893 7.57875 26.1213 7.20941C25.796 6.88542 25.3587 6.66275 24.604 6.52408C24.0093 6.41475 23.2707 6.36541 22.3133 6.34541C22.2286 7.07636 21.8782 7.75069 21.3288 8.24015C20.7793 8.72961 20.0692 9.00007 19.3333 9.00008H12.6667C11.931 9.00011 11.221 8.72984 10.6716 8.24065C10.1222 7.75146 9.77167 7.07746 9.68667 6.34675V6.34541ZM12.6667 3.66675C12.4015 3.66675 12.1471 3.7721 11.9596 3.95964C11.772 4.14718 11.6667 4.40153 11.6667 4.66675V6.00008C11.6667 6.55208 12.1147 7.00008 12.6667 7.00008H19.3333C19.5986 7.00008 19.8529 6.89472 20.0404 6.70719C20.228 6.51965 20.3333 6.2653 20.3333 6.00008V4.66675C20.3333 4.40153 20.228 4.14718 20.0404 3.95964C19.8529 3.7721 19.5986 3.66675 19.3333 3.66675H12.6667ZM20.7307 13.9841C20.9117 14.1779 21.0084 14.4356 20.9994 14.7007C20.9904 14.9657 20.8764 15.2164 20.6827 15.3974L14.968 20.7307C14.7828 20.9038 14.5388 21 14.2853 21C14.0319 21 13.7879 20.9038 13.6027 20.7307L11.3173 18.5974C11.2199 18.5081 11.1412 18.4004 11.0856 18.2806C11.0301 18.1607 10.9988 18.031 10.9937 17.8989C10.9886 17.7669 11.0097 17.6352 11.0558 17.5113C11.1019 17.3875 11.1721 17.274 11.2623 17.1775C11.3525 17.0809 11.4609 17.0032 11.5813 16.9488C11.7018 16.8944 11.8318 16.8645 11.9638 16.8606C12.0959 16.8568 12.2274 16.8791 12.3508 16.9264C12.4742 16.9737 12.587 17.045 12.6827 17.1361L14.2853 18.6321L19.3173 13.9361C19.5111 13.755 19.7689 13.6584 20.0339 13.6674C20.299 13.6764 20.5496 13.7903 20.7307 13.9841Z" fill="#566AED"/>
</svg>
