<svg width="32" height="32" viewBox="0 0 32 32" fill="none" xmlns="http://www.w3.org/2000/svg">
<path d="M13.2587 3C10.808 3 8.86667 3 7.348 3.204C5.78534 3.41467 4.52 3.85733 3.52134 4.85467C2.52401 5.85333 2.08134 7.11867 1.87067 8.68133C1.66667 10.2013 1.66667 12.1413 1.66667 14.592V14.7413C1.66667 17.192 1.66667 19.1333 1.87067 20.652C2.08134 22.2147 2.52401 23.48 3.52134 24.4787C3.92667 24.8827 4.38267 25.2027 4.896 25.452C5.13293 25.5576 5.4016 25.5669 5.6453 25.4782C5.88901 25.3894 6.08869 25.2094 6.20219 24.9762C6.31568 24.7429 6.33412 24.4747 6.25361 24.2282C6.1731 23.9816 5.99994 23.776 5.77067 23.6547C5.46099 23.5065 5.17875 23.3068 4.936 23.064C4.372 22.5 4.03334 21.7267 3.85334 20.3853C3.66934 19.016 3.66667 17.2093 3.66667 14.6667C3.66667 12.124 3.66934 10.3187 3.85334 8.94667C4.03334 7.60667 4.372 6.83333 4.936 6.26933C5.5 5.70533 6.27334 5.36667 7.61467 5.18667C8.98534 5.00267 10.7907 5 13.3333 5H18.6667C21.2093 5 23.016 5.00267 24.3867 5.18667C25.7267 5.36667 26.5 5.70533 27.064 6.26933C27.628 6.83333 27.9667 7.60667 28.1467 8.948C28.3307 10.3187 28.3333 12.124 28.3333 14.6667C28.3333 17.2093 28.3307 19.0147 28.1467 20.3867C27.9667 21.7267 27.628 22.5 27.064 23.064C26.824 23.304 26.552 23.4973 26.2293 23.6547C25.9908 23.7707 25.8081 23.9766 25.7215 24.2273C25.6349 24.478 25.6514 24.7528 25.7673 24.9913C25.8833 25.2299 26.0893 25.4125 26.34 25.4992C26.5907 25.5858 26.8655 25.5693 27.104 25.4533C27.6133 25.2079 28.0776 24.8784 28.4773 24.4787C29.4773 23.48 29.9187 22.2147 30.1293 20.652C30.3333 19.132 30.3333 17.192 30.3333 14.7413V14.592C30.3333 12.1413 30.3333 10.2 30.1293 8.68133C29.9187 7.11867 29.476 5.85333 28.4787 4.85467C27.48 3.85733 26.2147 3.41467 24.652 3.204C23.132 3 21.192 3 18.7413 3H13.2587Z" fill="#566AED"/>
<path fill-rule="evenodd" clip-rule="evenodd" d="M16.1573 18.4986C16.0525 18.493 15.9475 18.493 15.8427 18.4986C15.1733 18.5346 14.632 18.8306 14.1453 19.2092C13.6893 19.5626 13.1853 20.0666 12.6027 20.6492L12.5013 20.7506C11.2 22.0519 10.1493 23.1026 9.48 23.9772C8.82667 24.8306 8.28667 25.8319 8.64133 26.9266C8.69067 27.0759 8.75067 27.2226 8.82267 27.3626C9.344 28.3866 10.4333 28.7132 11.5013 28.8559C12.592 28.9999 14.0773 28.9999 15.9187 28.9999H16.08C17.9213 28.9999 19.408 28.9999 20.4987 28.8546C21.5653 28.7132 22.6547 28.3879 23.1773 27.3626C23.2493 27.2226 23.3107 27.0759 23.3587 26.9266C23.7133 25.8332 23.172 24.8319 22.5187 23.9772C21.8507 23.1039 20.7987 22.0519 19.4973 20.7506L19.3973 20.6506C18.8133 20.0666 18.3107 19.5626 17.8547 19.2092C17.3667 18.8306 16.8267 18.5346 16.1573 18.4986ZM15.9467 20.4959C15.9822 20.494 16.0178 20.494 16.0533 20.4959C16.1493 20.5012 16.3027 20.5359 16.6267 20.7892C16.9733 21.0559 17.3867 21.4692 18.0267 22.1079C19.4 23.4812 20.3533 24.4372 20.9307 25.1919C21.5333 25.9786 21.4787 26.2372 21.456 26.3092C21.4398 26.3592 21.4198 26.4078 21.396 26.4546C21.3613 26.5212 21.2173 26.7412 20.236 26.8719C19.292 26.9972 17.9413 26.9999 16 26.9999C14.0587 26.9999 12.7067 26.9972 11.7653 26.8719C10.7827 26.7412 10.6387 26.5212 10.604 26.4546C10.5802 26.4073 10.5601 26.3583 10.544 26.3079C10.52 26.2372 10.4667 25.9799 11.0693 25.1919C11.6467 24.4372 12.6 23.4799 13.9733 22.1079C14.6133 21.4679 15.0267 21.0559 15.372 20.7879C15.6973 20.5359 15.8493 20.5012 15.9467 20.4959Z" fill="#566AED"/>
</svg>
