<svg width="32" height="32" viewBox="0 0 32 32" fill="none" xmlns="http://www.w3.org/2000/svg">
<path fill-rule="evenodd" clip-rule="evenodd" d="M14.6853 6.39984C14.9146 6.09984 15.3306 5.6665 16 5.6665C16.6693 5.6665 17.0853 6.09984 17.3146 6.39984C17.5346 6.68517 17.7546 7.08117 17.9813 7.48784L18.1426 7.7785L18.2186 7.91184L18.3506 7.9425L18.668 8.0145C19.104 8.11317 19.5386 8.2105 19.872 8.3425C20.24 8.48784 20.7386 8.76917 20.932 9.38917C21.1213 9.99584 20.8826 10.5105 20.6746 10.8425C20.4813 11.1492 20.188 11.4905 19.888 11.8412L19.6746 12.0918L19.5653 12.2212C19.568 12.2692 19.5746 12.3252 19.5813 12.4012L19.6133 12.7345C19.6586 13.2025 19.7026 13.6558 19.6866 14.0185C19.6706 14.3998 19.58 14.9758 19.0626 15.3665C18.5293 15.7718 17.9426 15.6838 17.5693 15.5758C17.2253 15.4785 16.8186 15.2905 16.4093 15.1025L16.1133 14.9652L16 14.9132L15.8866 14.9665L15.5893 15.1025C15.1813 15.2905 14.7746 15.4785 14.4306 15.5758C14.0573 15.6825 13.4706 15.7718 12.9373 15.3665C12.4213 14.9758 12.3293 14.3998 12.3133 14.0198C12.2973 13.6558 12.34 13.2025 12.3866 12.7332L12.4186 12.3998L12.436 12.2212C12.3994 12.1778 12.3625 12.1347 12.3253 12.0918L12.112 11.8412C11.812 11.4905 11.5186 11.1478 11.3253 10.8412C11.1173 10.5105 10.8786 9.99584 11.068 9.38784C11.26 8.7705 11.76 8.48784 12.128 8.3425C12.4613 8.2105 12.896 8.11317 13.332 8.0145L13.6493 7.9425L13.7826 7.91184L13.8573 7.7785L14.0186 7.48784C14.2453 7.08117 14.4653 6.68517 14.6853 6.39984ZM16 8.04517C15.9226 8.17984 15.836 8.3345 15.7346 8.51717L15.604 8.75184L15.5733 8.80517C15.4693 8.99717 15.296 9.3145 15.0066 9.5345C14.712 9.7585 14.356 9.83584 14.1493 9.88117L14.0906 9.89317L13.8373 9.9505C13.6026 10.0038 13.412 10.0465 13.2506 10.0878C13.356 10.2172 13.4933 10.3798 13.672 10.5892L13.8453 10.7918L13.8853 10.8372C14.0293 11.0038 14.2613 11.2705 14.3693 11.6172C14.476 11.9585 14.4386 12.3105 14.416 12.5318L14.4093 12.5945L14.3826 12.8652C14.3621 13.0694 14.3434 13.2739 14.3266 13.4785C14.4666 13.4172 14.624 13.3452 14.812 13.2585L15.0506 13.1492L15.104 13.1225C15.296 13.0332 15.628 12.8758 16 12.8758C16.372 12.8758 16.704 13.0332 16.896 13.1238L16.9493 13.1492L17.188 13.2585C17.3746 13.3452 17.5346 13.4185 17.6733 13.4785C17.6565 13.2739 17.6379 13.0694 17.6173 12.8652L17.5906 12.5945L17.584 12.5318C17.5613 12.3092 17.524 11.9585 17.6306 11.6172C17.7373 11.2705 17.9706 11.0038 18.1146 10.8372L18.1546 10.7918L18.328 10.5892C18.5066 10.3798 18.644 10.2172 18.7493 10.0878C18.588 10.0478 18.3973 10.0038 18.1626 9.9505L17.9093 9.89317L17.8506 9.87984C17.644 9.83584 17.288 9.7585 16.9933 9.53317C16.704 9.3145 16.5306 8.99717 16.4266 8.8065L16.396 8.75184L16.2653 8.51717C16.164 8.3345 16.0786 8.17984 16 8.04517Z" fill="#566AED"/>
<path fill-rule="evenodd" clip-rule="evenodd" d="M9.99732 2.14258C11.9815 1.81732 13.9893 1.6581 16 1.66658C18.4373 1.66658 20.452 1.88125 22.0027 2.14258L22.1827 2.17325C23.5293 2.39858 24.6493 2.58658 25.524 3.66391C26.0853 4.35591 26.2667 5.10391 26.308 5.93725L26.964 6.15591C27.5813 6.36125 28.124 6.54258 28.552 6.74258C29.016 6.95858 29.4413 7.23591 29.7667 7.68791C30.092 8.13858 30.2213 8.63058 30.28 9.13858C30.3333 9.60925 30.3333 10.1786 30.3333 10.8319V11.0239C30.3333 11.5599 30.3333 12.0332 30.2933 12.4292C30.2507 12.8572 30.156 13.2746 29.92 13.6772C29.6813 14.0812 29.3627 14.3666 29.0093 14.6119C28.6827 14.8386 28.2693 15.0692 27.8 15.3292L24.28 17.2852C23.56 18.6999 22.5733 19.9612 21.2133 20.8719C20.0467 21.6546 18.6507 22.1506 17 22.2919V24.9999H18.9067C19.4461 24.9999 19.9689 25.1869 20.386 25.5289C20.8032 25.8709 21.0889 26.3469 21.1947 26.8759L21.4867 28.3332H24C24.2652 28.3332 24.5196 28.4386 24.7071 28.6261C24.8946 28.8137 25 29.068 25 29.3332C25 29.5985 24.8946 29.8528 24.7071 30.0404C24.5196 30.2279 24.2652 30.3332 24 30.3332H7.99999C7.73477 30.3332 7.48042 30.2279 7.29288 30.0404C7.10535 29.8528 6.99999 29.5985 6.99999 29.3332C6.99999 29.068 7.10535 28.8137 7.29288 28.6261C7.48042 28.4386 7.73477 28.3332 7.99999 28.3332H10.5133L10.8053 26.8759C10.9111 26.3469 11.1968 25.8709 11.614 25.5289C12.0311 25.1869 12.5539 24.9999 13.0933 24.9999H15V22.2919C13.3493 22.1506 11.9533 21.6546 10.7867 20.8732C9.42799 19.9612 8.43999 18.6999 7.71999 17.2852L4.19999 15.3292C3.78579 15.1093 3.38223 14.87 2.99066 14.6119C2.62189 14.3723 2.31123 14.0535 2.08132 13.6786C1.86476 13.2953 1.73674 12.8684 1.70666 12.4292C1.66666 12.0332 1.66666 11.5599 1.66666 11.0239V10.8306C1.66666 10.1799 1.66666 9.60925 1.71999 9.13858C1.77866 8.63058 1.90666 8.13858 2.23332 7.68791C2.55866 7.23591 2.98399 6.95858 3.44666 6.74125C3.87732 6.54125 4.41866 6.36125 5.03599 6.15591L5.69199 5.93725C5.73332 5.10258 5.91466 4.35591 6.47599 3.66391C7.35199 2.58525 8.47066 2.39725 9.81866 2.17325L9.99732 2.14258ZM12.5533 28.3332H19.4467L19.2333 27.2679C19.2182 27.1924 19.1774 27.1244 19.1179 27.0755C19.0583 27.0267 18.9837 27 18.9067 26.9999H13.0933C13.0163 27 12.9417 27.0267 12.8821 27.0755C12.8225 27.1244 12.7818 27.1924 12.7667 27.2679L12.5533 28.3332ZM5.73599 8.03058L5.71732 8.03725C5.03732 8.26391 4.60532 8.41058 4.29066 8.55591C4.00132 8.68925 3.90799 8.78391 3.85599 8.85725C3.80266 8.92925 3.74399 9.04791 3.70799 9.36525C3.66799 9.70925 3.66666 10.1652 3.66666 10.8826V10.9799C3.66666 11.5732 3.66666 11.9452 3.69599 12.2306C3.72266 12.4919 3.76532 12.5972 3.80532 12.6639C3.84399 12.7306 3.91466 12.8186 4.13066 12.9692C4.36532 13.1319 4.69066 13.3132 5.21066 13.6026L6.63066 14.3919C6.05999 12.2986 5.83066 10.0586 5.73732 8.03191L5.73599 8.03058ZM25.3693 14.3906C25.94 12.2972 26.1693 10.0572 26.264 8.03058L26.2827 8.03725C26.9627 8.26391 27.3947 8.41058 27.7093 8.55591C27.9987 8.68925 28.092 8.78391 28.144 8.85725C28.1973 8.92925 28.256 9.04791 28.292 9.36525C28.332 9.70925 28.3333 10.1652 28.3333 10.8826V10.9799C28.3333 11.5732 28.3333 11.9452 28.304 12.2306C28.2773 12.4919 28.2347 12.5972 28.1947 12.6639C28.156 12.7306 28.0853 12.8186 27.8693 12.9692C27.6333 13.1319 27.3093 13.3132 26.7893 13.6026L25.3693 14.3906ZM16 3.66658C13.68 3.66658 11.7773 3.87058 10.3307 4.11458C8.72132 4.38658 8.38399 4.48791 8.02932 4.92525C7.67999 5.35458 7.64666 5.76258 7.71732 7.56925C7.83732 10.5799 8.23466 13.8306 9.46399 16.3026C10.072 17.5212 10.8667 18.5186 11.9013 19.2119C12.928 19.9012 14.2547 20.3332 16 20.3332C17.7467 20.3332 19.072 19.9012 20.1 19.2119C21.1347 18.5186 21.928 17.5212 22.5347 16.3012C23.7653 13.8306 24.1627 10.5812 24.2813 7.56791C24.3547 5.76258 24.3213 5.35458 23.972 4.92525C23.6173 4.48791 23.2787 4.38658 21.6693 4.11458C19.7953 3.80797 17.8989 3.65812 16 3.66658Z" fill="#566AED"/>
</svg>
