<svg width="32" height="32" viewBox="0 0 32 32" fill="none" xmlns="http://www.w3.org/2000/svg">
<path fill-rule="evenodd" clip-rule="evenodd" d="M15.924 1.66675H16.076C19.1547 1.66675 21.5667 1.66675 23.4493 1.92008C25.3747 2.17875 26.8947 2.72008 28.088 3.91208C29.2813 5.10541 29.8213 6.62541 30.08 8.55208C30.3333 10.4334 30.3333 12.8454 30.3333 15.9241V17.2974C30.3342 17.3227 30.3342 17.3481 30.3333 17.3734C30.328 19.8427 30.2973 21.8401 30.08 23.4481C29.8213 25.3747 29.28 26.8947 28.088 28.0881C26.8947 29.2814 25.3747 29.8214 23.448 30.0801C21.5667 30.3334 19.1547 30.3334 16.076 30.3334H15.924C12.8453 30.3334 10.4333 30.3334 8.55067 30.0801C6.62533 29.8214 5.10533 29.2801 3.912 28.0881C2.71867 26.8947 2.17867 25.3747 1.92 23.4481C1.70267 21.8387 1.672 19.8427 1.66667 17.3734C1.66572 17.3481 1.66572 17.3227 1.66667 17.2974V15.9241C1.66667 12.8454 1.66667 10.4334 1.92 8.55075C2.17867 6.62541 2.72 5.10541 3.912 3.91208C5.10533 2.71875 6.62533 2.17875 8.552 1.92008C10.4333 1.66675 12.8453 1.66675 15.924 1.66675ZM3.67067 18.3334C3.684 20.3374 3.73067 21.9067 3.90133 23.1814C4.13067 24.8867 4.568 25.9147 5.32667 26.6747C6.08667 27.4334 7.11333 27.8694 8.81867 28.0987C10.552 28.3307 12.8293 28.3334 16 28.3334C19.1707 28.3334 21.448 28.3307 23.1813 28.0987C24.8867 27.8694 25.9147 27.4321 26.6747 26.6734C27.4333 25.9134 27.8693 24.8867 28.0987 23.1814C28.2693 21.9067 28.316 20.3374 28.328 18.3334H25.12C23.8213 18.3334 23.4813 18.3547 23.1973 18.4854C22.912 18.6174 22.6747 18.8614 21.8293 19.8454L21.0227 20.7881L20.9053 20.9241C20.236 21.7067 19.7053 22.3267 18.972 22.6641C18.2387 23.0014 17.4227 23.0014 16.3933 23.0001H15.608C14.5773 23.0001 13.7613 23.0027 13.028 22.6641C12.2947 22.3267 11.764 21.7067 11.0947 20.9241C11.0547 20.8801 11.0173 20.8347 10.9773 20.7881L10.1707 19.8467C9.32533 18.8601 9.088 18.6174 8.80267 18.4867C8.51867 18.3547 8.17867 18.3334 6.88 18.3334H3.67067ZM28.3333 16.3334H24.9413C23.9107 16.3334 23.0947 16.3307 22.3613 16.6694C21.628 17.0067 21.0973 17.6267 20.428 18.4094C20.388 18.4534 20.3507 18.4987 20.3107 18.5454L19.504 19.4867C18.6587 20.4734 18.4213 20.7161 18.136 20.8467C17.852 20.9787 17.512 21.0001 16.2133 21.0001H15.7867C14.488 21.0001 14.148 20.9787 13.864 20.8481C13.5787 20.7161 13.3413 20.4721 12.496 19.4881L11.6893 18.5454L11.572 18.4094C10.9027 17.6267 10.372 17.0067 9.63867 16.6694C8.90533 16.3307 8.08933 16.3321 7.06 16.3334H3.66667V16.0001C3.66667 12.8294 3.66933 10.5521 3.90133 8.81875C4.13067 7.11341 4.568 6.08541 5.32667 5.32541C6.08667 4.56675 7.11333 4.13075 8.81867 3.90141C10.552 3.66941 12.8293 3.66675 16 3.66675C19.1707 3.66675 21.448 3.66941 23.1813 3.90141C24.8867 4.13075 25.9147 4.56808 26.6747 5.32675C27.4333 6.08675 27.8693 7.11341 28.0987 8.81875C28.3307 10.5521 28.3333 12.8294 28.3333 16.0001V16.3334ZM9.66667 9.33341C9.66667 9.0682 9.77203 8.81384 9.95956 8.62631C10.1471 8.43877 10.4015 8.33341 10.6667 8.33341H21.3333C21.5986 8.33341 21.8529 8.43877 22.0404 8.62631C22.228 8.81384 22.3333 9.0682 22.3333 9.33341C22.3333 9.59863 22.228 9.85298 22.0404 10.0405C21.8529 10.2281 21.5986 10.3334 21.3333 10.3334H10.6667C10.4015 10.3334 10.1471 10.2281 9.95956 10.0405C9.77203 9.85298 9.66667 9.59863 9.66667 9.33341ZM12.3333 14.0001C12.3333 13.7349 12.4387 13.4805 12.6262 13.293C12.8138 13.1054 13.0681 13.0001 13.3333 13.0001H18.6667C18.9319 13.0001 19.1862 13.1054 19.3738 13.293C19.5613 13.4805 19.6667 13.7349 19.6667 14.0001C19.6667 14.2653 19.5613 14.5197 19.3738 14.7072C19.1862 14.8947 18.9319 15.0001 18.6667 15.0001H13.3333C13.0681 15.0001 12.8138 14.8947 12.6262 14.7072C12.4387 14.5197 12.3333 14.2653 12.3333 14.0001Z" fill="#566AED"/>
</svg>
