<svg width="54" height="54" viewBox="0 0 54 54" fill="none" xmlns="http://www.w3.org/2000/svg">
<path d="M38.25 31.5C38.8467 31.5 39.419 31.2629 39.841 30.841C40.2629 30.419 40.5 29.8467 40.5 29.25C40.5 28.6533 40.2629 28.081 39.841 27.659C39.419 27.2371 38.8467 27 38.25 27C37.6533 27 37.081 27.2371 36.659 27.659C36.2371 28.081 36 28.6533 36 29.25C36 29.8467 36.2371 30.419 36.659 30.841C37.081 31.2629 37.6533 31.5 38.25 31.5ZM38.25 40.5C38.8467 40.5 39.419 40.2629 39.841 39.841C40.2629 39.419 40.5 38.8467 40.5 38.25C40.5 37.6533 40.2629 37.081 39.841 36.659C39.419 36.2371 38.8467 36 38.25 36C37.6533 36 37.081 36.2371 36.659 36.659C36.2371 37.081 36 37.6533 36 38.25C36 38.8467 36.2371 39.419 36.659 39.841C37.081 40.2629 37.6533 40.5 38.25 40.5ZM29.25 29.25C29.25 29.8467 29.0129 30.419 28.591 30.841C28.169 31.2629 27.5967 31.5 27 31.5C26.4033 31.5 25.831 31.2629 25.409 30.841C24.9871 30.419 24.75 29.8467 24.75 29.25C24.75 28.6533 24.9871 28.081 25.409 27.659C25.831 27.2371 26.4033 27 27 27C27.5967 27 28.169 27.2371 28.591 27.659C29.0129 28.081 29.25 28.6533 29.25 29.25ZM29.25 38.25C29.25 38.8467 29.0129 39.419 28.591 39.841C28.169 40.2629 27.5967 40.5 27 40.5C26.4033 40.5 25.831 40.2629 25.409 39.841C24.9871 39.419 24.75 38.8467 24.75 38.25C24.75 37.6533 24.9871 37.081 25.409 36.659C25.831 36.2371 26.4033 36 27 36C27.5967 36 28.169 36.2371 28.591 36.659C29.0129 37.081 29.25 37.6533 29.25 38.25ZM15.75 31.5C16.3467 31.5 16.919 31.2629 17.341 30.841C17.7629 30.419 18 29.8467 18 29.25C18 28.6533 17.7629 28.081 17.341 27.659C16.919 27.2371 16.3467 27 15.75 27C15.1533 27 14.581 27.2371 14.159 27.659C13.7371 28.081 13.5 28.6533 13.5 29.25C13.5 29.8467 13.7371 30.419 14.159 30.841C14.581 31.2629 15.1533 31.5 15.75 31.5ZM15.75 40.5C16.3467 40.5 16.919 40.2629 17.341 39.841C17.7629 39.419 18 38.8467 18 38.25C18 37.6533 17.7629 37.081 17.341 36.659C16.919 36.2371 16.3467 36 15.75 36C15.1533 36 14.581 36.2371 14.159 36.659C13.7371 37.081 13.5 37.6533 13.5 38.25C13.5 38.8467 13.7371 39.419 14.159 39.841C14.581 40.2629 15.1533 40.5 15.75 40.5Z" fill="#566AED"/>
<path fill-rule="evenodd" clip-rule="evenodd" d="M15.75 3.9375C16.1976 3.9375 16.6268 4.11529 16.9432 4.43176C17.2597 4.74822 17.4375 5.17745 17.4375 5.625V7.34175C18.927 7.3125 20.5672 7.3125 22.3717 7.3125H31.626C33.4327 7.3125 35.073 7.3125 36.5625 7.34175V5.625C36.5625 5.17745 36.7403 4.74822 37.0568 4.43176C37.3732 4.11529 37.8024 3.9375 38.25 3.9375C38.6976 3.9375 39.1268 4.11529 39.4432 4.43176C39.7597 4.74822 39.9375 5.17745 39.9375 5.625V7.48575C40.5225 7.53075 41.076 7.587 41.6003 7.65675C44.2373 8.01225 46.3725 8.75925 48.0578 10.4422C49.7407 12.1275 50.4878 14.2628 50.8433 16.8998C51.1875 19.4648 51.1875 22.7385 51.1875 26.874V31.626C51.1875 35.7615 51.1875 39.0375 50.8433 41.6003C50.4878 44.2373 49.7407 46.3725 48.0578 48.0577C46.3725 49.7407 44.2373 50.4878 41.6003 50.8433C39.0353 51.1875 35.7615 51.1875 31.626 51.1875H22.3762C18.2407 51.1875 14.9648 51.1875 12.402 50.8433C9.765 50.4878 7.62975 49.7407 5.9445 48.0577C4.2615 46.3725 3.5145 44.2373 3.159 41.6003C2.81475 39.0353 2.81475 35.7615 2.81475 31.626V26.874C2.81475 22.7385 2.81475 19.4625 3.159 16.8998C3.5145 14.2628 4.2615 12.1275 5.9445 10.4422C7.62975 8.75925 9.765 8.01225 12.402 7.65675C12.9263 7.587 13.482 7.53075 14.0648 7.48575V5.625C14.0648 5.17784 14.2422 4.74896 14.5582 4.43255C14.8742 4.11615 15.3028 3.9381 15.75 3.9375ZM12.8475 11.0025C10.5863 11.3062 9.28125 11.8778 8.3295 12.8295C7.37775 13.7812 6.80625 15.0863 6.5025 17.3497C6.45075 17.7323 6.408 18.1372 6.372 18.5625H47.628C47.592 18.135 47.5493 17.7323 47.4975 17.3475C47.1938 15.0863 46.6223 13.7812 45.6705 12.8295C44.7188 11.8778 43.4137 11.3062 41.1502 11.0025C38.8395 10.692 35.7907 10.6875 31.5 10.6875H22.5C18.2092 10.6875 15.1628 10.692 12.8475 11.0025ZM6.1875 27C6.1875 25.0785 6.1875 23.4067 6.21675 21.9375H47.7832C47.8125 23.4067 47.8125 25.0785 47.8125 27V31.5C47.8125 35.7908 47.808 38.8395 47.4975 41.1525C47.1938 43.4138 46.6223 44.7188 45.6705 45.6705C44.7188 46.6222 43.4137 47.1938 41.1502 47.4975C38.8395 47.808 35.7907 47.8125 31.5 47.8125H22.5C18.2092 47.8125 15.1628 47.808 12.8475 47.4975C10.5863 47.1938 9.28125 46.6222 8.3295 45.6705C7.37775 44.7188 6.80625 43.4137 6.5025 41.1502C6.192 38.8395 6.1875 35.7908 6.1875 31.5V27Z" fill="#566AED"/>
</svg>
